<?xml version="1.0" encoding="UTF-8"?>
<svg id="Layer_2" data-name="Layer 2" xmlns="http://www.w3.org/2000/svg" viewBox="0 0 256.38 256.38">
  <defs>
    <style>
      .cls-1 {
        fill: #2D3058;
        stroke: #000000;
      }
    </style>
  </defs>
  <g id="Layer_1-2" data-name="Layer 1">
    <path class="cls-1" d="m161.61,4.97C93.66-13.46,23.39,26.82,4.97,94.77c-18.43,67.95,21.86,138.22,89.81,156.64,67.95,18.43,138.22-21.86,156.64-89.8,18.43-67.95-21.86-138.22-89.8-156.64Zm-82.49,234.51c-5.22-3.62-9.9-8.1-13.98-13.2-7.63-9.53-13.07-21.09-16.62-33.36.5.21,1,.44,1.5.66,9.66,4.12,19.51,7.72,29.47,10.91.02.81.03,1.61.06,2.41.22,5.84.74,11.62,1.72,17.18.99,5.56,2.46,10.98,4.83,15.64.97,1.88,2.1,3.6,3.41,5.1-1.11-.37-2.2-.75-3.29-1.15-2.45-1.23-4.82-2.62-7.1-4.2ZM7.34,144.19c-1.66-12.97-1.18-26.19,1.33-39.01,1.8,2.41,3.86,4.37,6.01,6.19,4.36,3.64,9.05,6.64,13.83,9.44,4.09,2.35,8.26,4.52,12.49,6.56-.85,5.78-1.4,11.6-1.67,17.42-1.86-.01-3.73,0-5.6.08-4.89.22-9.82.67-14.75,1.87-2.46.62-4.94,1.42-7.34,2.77-1.07.6-2.12,1.34-3.09,2.28-.47-2.52-.88-5.04-1.2-7.58Zm28.73-95.89c.36,1.22.88,2.32,1.46,3.32,1.4,2.39,3.15,4.33,4.97,6.11,3.67,3.54,7.71,6.42,11.85,9.08,1.66,1.06,3.35,2.06,5.05,3.03-2.64,5.09-5.02,10.32-7.16,15.66-4.65-.36-9.31-.6-14.01-.63-5.53,0-11.09.21-16.7,1.15-2.78.49-5.58,1.13-8.35,2.32,4.32-12.59,10.66-24.48,18.79-35.03,1.31-1.71,2.68-3.39,4.09-5.03Zm7.69-8.22c.11-.07.23-.14.34-.2,1.81-1.04,3.95-1.77,6.16-2.33,4.43-1.11,9.13-1.58,13.82-1.81,6.29-.28,12.63-.15,18.97.26-8.14,8.72-15.25,18.62-21.18,29.23-.06.11-.11.21-.17.33-1.65-.98-3.28-1.99-4.89-3.03-3.93-2.57-7.75-5.36-11.01-8.54-1.61-1.6-3.09-3.31-4.13-5.12-1.06-1.81-1.54-3.67-1.12-5.13.05-.22.14-.43.23-.64.98-1.02,1.97-2.03,2.98-3.01Zm51.45-30.23c3.87-1.09,7.8-1.99,11.78-2.69-.09.22-.18.45-.24.69-.23.86-.23,1.76-.09,2.53.14.78.4,1.47.71,2.08.49.96,1.08,1.78,1.71,2.52-7.58,4.33-14.69,9.78-21.15,16.01-.44.43-.87.88-1.31,1.32-7.5-.73-15.06-1.14-22.68-.87-3.94.17-7.91.49-11.88,1.23,5.03-4.1,10.37-7.82,16-11.08,8.54-4.96,17.68-8.92,27.16-11.76Zm99.46,179.56c1.14.68,2.28,1.36,3.39,2.08,4.02,2.59,7.92,5.39,11.37,8.73,1.71,1.68,3.31,3.5,4.53,5.58,1.2,2.04,2.02,4.53,1.38,6.93-.66,2.39-2.62,4.13-4.68,5.28-2.11,1.19-4.41,1.95-6.73,2.53-4.66,1.14-9.45,1.59-14.22,1.8-6.14.23-12.28,0-18.4-.49,8.89-9.28,16.49-19.97,22.82-31.43.18-.34.36-.69.55-1.03Zm-1.37.77c-6.47,11.61-14.37,22.34-23.47,31.57-2.92-.26-5.84-.56-8.73-.91-9.02-1.13-17.96-2.7-26.83-4.58,2.07-3.63,4.05-7.33,5.95-11.1,5.3-10.53,9.89-21.54,14.01-32.75.14-.36.26-.72.39-1.08,6.06,2.17,12.07,4.48,17.99,7.02,7.27,3.18,14.46,6.61,21.32,10.63-.21.39-.42.79-.63,1.19Zm-96.53,56.79c-3.97-1.12-7.01-4.65-9.08-9.05-2.1-4.42-3.38-9.62-4.21-15.01-.85-5.68-1.23-11.57-1.3-17.54,7.5,2.34,15.07,4.48,22.67,6.44,8.96,2.27,18,4.28,27.08,5.98-.42.68-.84,1.38-1.27,2.05-3.07,4.84-6.34,9.48-9.9,13.67-3.54,4.18-7.38,7.96-11.5,10.62-2.06,1.32-4.18,2.34-6.31,2.86-2.11.54-4.25.55-6.18,0Zm8.37-38c-7.72-2.23-15.39-4.67-22.98-7.32.04-4.24.23-8.52.5-12.78.76-11.61,2.35-23.32,4.45-34.97.02-.09.04-.18.05-.28,10.46,1.83,20.86,4.08,31.16,6.7,12.01,3.08,23.92,6.61,35.61,10.76-4.28,11.57-9.12,22.85-14.66,33.64-1.97,3.86-4.06,7.63-6.26,11.29-9.37-2.02-18.67-4.4-27.88-7.03Zm-61.73-64.12c.26-5.22.77-10.43,1.51-15.62,4.4,2.04,8.84,3.95,13.31,5.79,8.97,3.62,18.05,6.89,27.22,9.89-.33,1.67-.65,3.33-.95,5-7.18-1.41-14.41-2.6-21.69-3.52-6.43-.76-12.88-1.34-19.38-1.55ZM10.75,96.34c.06-.23.13-.45.19-.68.67-1.25,2.25-2.4,4.11-3.2,2.22-.98,4.75-1.61,7.3-2.07,5.15-.9,10.51-1.16,15.86-1.19,4.16,0,8.32.12,12.49.36-1.98,5.32-3.73,10.73-5.22,16.2-1.49,5.53-2.72,11.13-3.7,16.77-3.72-1.9-7.39-3.9-10.97-6.01-4.6-2.73-9.09-5.66-13.08-9.04-1.98-1.68-3.84-3.5-5.26-5.48-1.2-1.62-1.97-3.41-1.93-4.83.08-.28.14-.56.22-.84Zm38.81,10.53c1.55-5.76,3.4-11.44,5.5-17.02,5.12.38,10.24.91,15.34,1.55,9.41,1.16,18.79,2.66,28.13,4.4-2.49,7.43-4.76,14.94-6.83,22.5-2.05,7.62-3.89,15.31-5.5,23.03-8.95-3.22-17.8-6.67-26.51-10.43-4.72-2.02-9.4-4.15-14.01-6.41,1.01-5.93,2.29-11.82,3.88-17.62ZM111.22,13.56c-.73-.81-1.4-1.68-1.86-2.61-.47-.93-.66-1.9-.44-2.67.15-.57.55-1.13,1.11-1.61,8.11-1.22,16.4-1.64,24.77-1.19-4.07.7-8.1,1.77-12.04,3.18-3.88,1.39-7.68,3.1-11.38,5.07-.05-.05-.11-.1-.16-.16Zm93.35,18.38c.2.74.26,1.52.06,2.3-.34,1.26-1.3,2.2-2.29,2.84-.61.4-1.26.7-1.91.97-1.95-3.25-4.1-6.37-6.46-9.29-2.9-3.61-6.11-6.92-9.59-9.86,7.22,3.71,13.98,8.1,20.2,13.05Zm11.96,75.85c.34-13-.8-25.99-3.74-38.41,5.55,2.67,10.98,5.58,16.18,8.88,4.03,2.6,7.95,5.41,11.42,8.76,1.71,1.68,3.33,3.5,4.55,5.58,1.21,2.05,2.03,4.54,1.39,6.94-.66,2.39-2.62,4.13-4.7,5.28-2.11,1.18-4.42,1.94-6.75,2.52-4.68,1.14-9.49,1.58-14.27,1.79-1.38.05-2.75.07-4.12.08.01-.48.04-.95.04-1.42Zm-.83-.18c-.02.53-.05,1.06-.06,1.6-7.95,0-15.87-.68-23.75-1.62-6.41-.81-12.78-1.85-19.13-3.05.08-.45.18-.9.26-1.35,2.1-11.75,3.71-23.58,4.46-35.35.25-4.12.42-8.24.46-12.35,8.61,2.86,17.12,6.03,25.48,9.59,2.7,1.18,5.38,2.39,8.04,3.66,3.16,12.49,4.52,25.64,4.24,38.86Zm-120.7,11.59c2.07-7.67,4.37-15.26,6.87-22.78,10.81,2.09,21.56,4.54,32.23,7.27,12.12,3.13,24.17,6.61,36.05,10.55-1.65,7.98-3.55,15.92-5.66,23.8-2.18,7.9-4.56,15.77-7.19,23.54-12.25-2.6-24.39-5.69-36.43-9.1-10.59-3.03-21.1-6.36-31.49-10.01,1.65-7.81,3.51-15.57,5.62-23.27Zm40.1-17.44c-10.68-3.03-21.44-5.81-32.28-8.23.48-1.42,1-2.83,1.5-4.24,10.26,3.47,20.67,6.5,31.14,9.2,11.99,3.04,24.09,5.62,36.28,7.6-.43,2.34-.88,4.68-1.36,7.02-11.62-4.18-23.41-7.95-35.28-11.36Zm-9.6-60.02c7.85,1.54,15.64,3.3,23.39,5.27,9.36,2.41,18.65,5.07,27.83,8.09.04,4.19-.06,8.42-.3,12.66-.67,12.18-2.2,24.44-4.38,36.64-12.24-2.34-24.36-5.33-36.34-8.75-10.17-2.93-20.23-6.22-30.14-9.91.06-.16.12-.33.18-.5,4.09-11.1,8.61-22.01,13.83-32.42,1.89-3.76,3.86-7.47,5.92-11.09Zm24.93-34.41c1.09.21,2.19.42,3.28.66-1.88.62-3.72,1.54-5.5,2.67-4.41,2.82-8.41,6.76-12.08,11.05-1.33,1.56-2.61,3.2-3.86,4.86-1.5-.66-3-1.34-4.47-2.06-4.01-1.93-7.92-4.09-11.56-6.64-.81-.58-1.6-1.18-2.36-1.8,3.07-1.67,6.22-3.14,9.45-4.37,6.09-2.34,12.4-3.84,18.73-4.32,2.79-.22,5.58-.22,8.36-.04Zm-12.96,16.55c3.44-4.23,7.17-8.07,11.22-10.83,2.01-1.36,4.1-2.44,6.21-3.03,2.1-.6,4.22-.68,6.17-.2,4,.97,7.17,4.41,9.36,8.77,2.22,4.38,3.62,9.58,4.56,14.97.31,1.76.56,3.55.77,5.35-7.8-1.04-15.47-2.8-23-4.97-6.15-1.79-12.23-3.89-18.14-6.37.93-1.26,1.87-2.5,2.84-3.7Zm15.09,11.64c7.65,1.93,15.42,3.39,23.29,4.19.4,3.49.65,7.05.78,10.64.03,1.12.06,2.25.08,3.38-8.82-3.18-17.76-6.04-26.77-8.64-7.58-2.17-15.22-4.16-22.93-5.93,1.99-3.35,4.08-6.6,6.27-9.71,6.3,2.45,12.75,4.42,19.27,6.08Zm19.89,70.68c6.65,1.07,13.32,1.96,20.01,2.64,7.69.79,15.41,1.27,23.15,1.22-.26,7.07-.96,14.13-2.08,21.16-5.49-2.76-11.07-5.31-16.7-7.73-8.48-3.65-17.09-7.01-25.77-10.15.49-2.38.95-4.76,1.4-7.15Zm31.92-41.24c-8.65-3.96-17.48-7.53-26.42-10.78.01-4.83-.16-9.62-.6-14.33.59.06,1.18.11,1.79.16,4.5.36,9.03.47,13.56.08,2.16-.19,4.31-.51,6.43-1.14,5.03,8.09,8.87,17.18,11.53,26.7.25.86.46,1.73.68,2.6-2.31-1.13-4.63-2.23-6.97-3.29Zm-26.29-48.27c5.33,3.52,10.15,7.92,14.37,12.96,2.33,2.79,4.48,5.78,6.44,8.91-2.14.62-4.31.92-6.48,1.1-4.52.34-9,.09-13.45-.35-.56-.06-1.11-.13-1.67-.2-.2-2-.43-3.99-.73-5.95-.88-5.55-2.21-10.97-4.48-15.67-.95-1.96-2.07-3.76-3.4-5.31,1.61.56,3.21,1.15,4.79,1.78,1.57.85,3.11,1.76,4.61,2.74Zm-66.6.72c1.14,1.01,2.32,1.92,3.53,2.77,3.82,2.64,7.87,4.73,11.98,6.63,1.28.57,2.57,1.12,3.86,1.65-1.69,2.34-3.31,4.75-4.88,7.21-.6.94-1.18,1.9-1.77,2.85-10.25-2.28-20.6-4.17-31.05-5.5-.59-.07-1.18-.13-1.77-.2,6.18-5.95,12.91-11.22,20.1-15.41Zm-18.96,19.37c10.07,1.02,20.11,2.52,30.08,4.4-1.89,3.21-3.7,6.48-5.42,9.82-5.57,10.8-10.43,22.06-14.71,33.59-6.96-2.65-13.83-5.51-20.59-8.6-5.66-2.58-11.24-5.35-16.64-8.39.03-.06.06-.11.09-.17,6.26-11.36,13.78-21.95,22.54-31.09,1.55.13,3.1.27,4.64.44Zm-12.17,43.42c6.85,2.92,13.79,5.57,20.79,8.01-.54,1.53-1.08,3.07-1.62,4.61-9.41-2.03-18.89-3.8-28.44-5.2-4.82-.67-9.65-1.27-14.5-1.73,1.93-4.78,4.06-9.47,6.4-14.03,5.67,3.06,11.48,5.79,17.36,8.35Zm8.3,65.76c10.57,3.39,21.24,6.43,31.97,9.19,11.96,3.07,24.01,5.76,36.14,8.02-.8,2.33-1.61,4.63-2.46,6.93-11.46-4.44-23.14-8.31-34.95-11.72-10.42-2.97-20.95-5.62-31.58-7.81.29-1.54.57-3.09.89-4.62Zm84.85,32.23c-6.09-2.79-12.28-5.38-18.53-7.81.85-2.34,1.68-4.7,2.49-7.07,9.09,1.69,18.22,3.14,27.4,4.28,6.06.76,12.15,1.36,18.24,1.77-2.62,6.68-5.65,13.2-9.07,19.48-6.62-3.96-13.52-7.44-20.53-10.64Zm10.84-11.71c-8.84-1.29-17.63-2.91-26.36-4.76,2.6-7.76,4.97-15.61,7.1-23.52,2.15-7.86,4.05-15.79,5.72-23.74,8.47,2.81,16.86,5.86,25.14,9.21,5.91,2.44,11.78,5.01,17.53,7.8-1.02,6.32-2.35,12.59-4.02,18.77-1.69,6.22-3.74,12.35-6.06,18.35-6.38-.49-12.73-1.24-19.06-2.12Zm25.83-16.05c1.67-6.13,3.02-12.34,4.05-18.6,3.75,1.85,7.45,3.8,11.08,5.89,4.68,2.74,9.27,5.68,13.44,9.18,2.07,1.75,4.05,3.65,5.66,5.85.8,1.11,1.51,2.29,1.96,3.58.46,1.28.62,2.71.26,4.05-.36,1.34-1.23,2.48-2.26,3.36-1.05.89-2.25,1.55-3.51,2.1-2.5,1.08-5.17,1.71-7.85,2.18-5.37.91-10.81,1.13-16.24,1.14-4.19-.03-8.37-.22-12.55-.52,2.29-5.97,4.29-12.05,5.95-18.23Zm37.02,6.42c-.45-1.31-1.16-2.5-1.95-3.61-1.62-2.22-3.6-4.13-5.67-5.9-4.18-3.53-8.78-6.51-13.46-9.29-3.88-2.28-7.84-4.4-11.85-6.43,1.18-7.15,1.91-14.35,2.19-21.55,1.65-.02,3.29-.05,4.94-.13,4.82-.23,9.66-.71,14.36-1.88,2.34-.6,4.66-1.37,6.78-2.57,2.09-1.18,4.06-2.94,4.7-5.34.14-.49.2-.98.22-1.47,4.69,18.84,4.99,39.03.01,59.08-.06-.31-.16-.62-.26-.92Zm-1.33-63.68c-1.22-2.1-2.83-3.94-4.55-5.64-3.46-3.39-7.4-6.24-11.44-8.88-5.54-3.58-11.31-6.77-17.2-9.72-.27-1.11-.53-2.23-.82-3.33-2.58-9.6-6.27-18.84-11.2-27.16.71-.28,1.4-.61,2.05-1.05,1-.65,1.96-1.62,2.3-2.9.21-.74.16-1.49,0-2.21,19.62,15.76,33.91,37.22,41.01,61.14-.04-.09-.09-.18-.14-.27ZM11.52,162.29c-1.05-1.81-1.53-3.68-1.1-5.14.37-1.46,1.73-2.83,3.54-3.86,1.81-1.03,3.94-1.77,6.14-2.33,4.42-1.12,9.09-1.59,13.77-1.82,1.76-.09,3.53-.12,5.29-.13,0,0,0,0,0,.02-.24,12.22.9,24.4,3.54,36.09-5.54-2.8-10.94-5.82-16.1-9.18-3.92-2.57-7.72-5.34-10.96-8.53-1.6-1.6-3.08-3.32-4.12-5.12Zm31.73-13.29c6.31.09,12.64.51,18.94,1.15,7.27.74,14.52,1.71,21.74,2.91-2.1,12.03-3.57,24.13-4.23,36.17-.2,3.83-.29,7.63-.27,11.43-9.45-3.39-18.76-7.14-27.86-11.3-1.52-.7-3.03-1.4-4.53-2.13-2.96-12.32-4.13-25.27-3.79-38.24Zm61.24,99.76c1.93-.67,3.82-1.66,5.63-2.86,4.33-2.93,8.21-6.92,11.78-11.27,4.16-5.11,7.89-10.74,11.34-16.61,9.39,1.71,18.85,3.1,28.35,4.06,2.43.25,4.85.46,7.28.64-.37.36-.73.74-1.11,1.1-9.98,9.66-21.52,17.41-33.91,21.86-6.19,2.23-12.57,3.59-18.95,3.93-1.76.1-3.51.11-5.26.04-1.72-.26-3.44-.57-5.16-.9Zm30.22-1.53c12.59-4.79,24.09-12.93,34.05-22.75.55-.55,1.07-1.11,1.61-1.66,6.67.45,13.36.6,20.03.3,4.8-.24,9.62-.72,14.3-1.89,2.19-.57,4.37-1.31,6.39-2.39-23.99,21.88-56.25,33.9-89.69,32.05,4.5-.77,8.96-2.01,13.31-3.66Zm80.09-40.89c-1.21-2.1-2.81-3.95-4.52-5.64-3.45-3.38-7.36-6.23-11.38-8.86-1.37-.88-2.76-1.74-4.15-2.59,3.47-6.39,6.53-13.04,9.18-19.85,4.53.28,9.03.44,13.56.43,5.45-.02,10.92-.28,16.31-1.21,2.69-.49,5.37-1.13,7.88-2.23,1.25-.56,2.46-1.22,3.51-2.12.23-.2.45-.42.67-.64-5.94,19.73-16.47,36.92-30.09,50.72.16-.33.29-.67.39-1.04.66-2.4-.15-4.92-1.35-6.98Zm-192.36-16.55c-3.01-5.31-5.62-10.86-7.81-16.55,3.02,2.61,6.23,4.87,9.5,6.98,6.44,4.09,13.17,7.56,20.02,10.73.07.26.13.52.2.78,3.85,13.63,10.05,26.46,18.77,36.86,2.7,3.22,5.65,6.2,8.83,8.86-12.25-6.3-23.14-14.52-32.38-24.18-6.6-7.14-12.36-15.03-17.12-23.49Z"/>
  </g>
</svg>